<svg xmlns="http://www.w3.org/2000/svg" width="264" height="88" fill="#Fff"><path d="M15 15h5v2h-3v3h-2v-5m9 0h5v5h-2v-3h-3v-2m3 9h2v5h-5v-2h3v-3m-7 3v2h-5v-5h2v3h3z"/><path d="M68 24h5v2h-3v3h-2v-5m-9 0h5v5h-2v-3h-3v-2m3-9h2v5h-5v-2h3v-3m11 3v2h-5v-5h2v3h3z"/><path d="M113.5 24l5 5-1.5 1.5-5-5v-.79l-.27-.28A6.471 6.471 0 01107.5 26a6.5 6.5 0 01-6.5-6.5 6.5 6.5 0 016.5-6.5 6.5 6.5 0 016.5 6.5c0 1.61-.59 3.09-1.57 4.23l.28.27h.79m-6 0c2.5 0 4.5-2 4.5-4.5s-2-4.5-4.5-4.5-4.5 2-4.5 4.5 2 4.5 4.5 4.5m2.5-4h-2v2h-1v-2h-2v-1h2v-2h1v2h2v1z"/><path d="M157.5 24h-.79l-.28-.27A6.471 6.471 0 00158 19.5a6.5 6.5 0 00-6.5-6.5 6.5 6.5 0 00-6.5 6.5 6.5 6.5 0 006.5 6.5c1.61 0 3.09-.59 4.23-1.57l.27.28v.79l5 5 1.5-1.5-5-5m-6 0c-2.5 0-4.5-2-4.5-4.5s2-4.5 4.5-4.5 4.5 2 4.5 4.5-2 4.5-4.5 4.5m-2.5-5h5v1h-5v-1z"/><path d="M29 60.41L27.59 59 22 64.59 16.41 59 15 60.41 20.59 66 15 71.59 16.41 73 22 67.41 27.59 73 29 71.59 23.41 66 29 60.41z"/><path d="M59 74h14v-2H59m14-9h-4v-6h-6v6h-4l7 7 7-7z"/><path d="M102 65v2h12l-5.5 5.5 1.42 1.42 7.92-7.92-7.92-7.92-1.42 1.42L114 65h-12z"/><path d="M162 65v2h-12l5.5 5.5-1.42 1.42-7.92-7.92 7.92-7.92 1.42 1.42L150 65h12z"/></svg>